<?xml version="1.0" encoding="UTF-8" standalone="no"?>
<svg xmlns="http://www.w3.org/2000/svg" width="64" height="64" viewBox="0 0 256 256">
  <style>@media (prefers-color-scheme:dark){.themed{fill:#eee}}</style>
  <path class="themed" d="M72 0v50L8 69l27 35-30 37 33 13v75l94 27 94-27v-75l33-13-30-38 26-34-63-19V0l-24 32-36-2-36 2z"/>
  <path fill="#222" d="M81 27v85l51 14 51-14V27l-11 15-40-3a448 448 0 0 0-40 3z"/>
  <path fill="#a86" d="m41 110-21 27 81 32 25-35zm182 0-85 24 26 35 81-32zm-122 59 25-35zm37-35 26 35zm-1 14v97l80-23v-64l-56 22Zm-10 0-23 32-57-22v64l80 23zM72 59 24 74l20 27 28-8zm120 1v33l28 8 20-27z"/>
  <path fill="#531" d="M60 191a4 4 0 0 0-3 0l-2 1v20a8 8 0 0 0 2 5 6 6 0 0 0 3 2l16 4a4 4 0 0 0 3 0l1-1 1-2v-18l-1-3-2-2a6 6 0 0 0-2-1zm29 8a4 4 0 0 0-3 0l-2 1v23a7 7 0 0 0 4 4l17 5a4 4 0 0 0 2 0l2-2 1-2v-18a8 8 0 0 0-2-5 6 6 0 0 0-3-1zm-13 0 1 1 1 1v18l-1 1h-1l-16-5-2-1v-20h1zm29 8 1 1 1 2v17l-1 1h-1l-17-4-1-1v-21h1zm-11-1h-1l-2 4a6 6 0 0 0 0 5l5 4v3l-1-1-2 1 1 2 5 1 1-1-1-1-1-1v-3l4-1 1-5-2-5-1-1zm-27-7c-4-1-7 2-7 6v1h1c1-1 2 0 2 1h4v6h-1l-1-2-1 1c0 3 5 5 5 2v-6l2 1h1l3 1v1l1-1c0-4-3-9-7-11h-2zm26 13 8 2-1 2-3 1h-1l-2-2-1-4zm100-15-4 5 1 2 2-1v13c0 2 3 1 3-1v-13h1l2-1 1-1-4-4-2 1zm12-4-4 6v1h3v13l3-1v-13l2-1c1 0 2-1 1-2l-4-3h-1zm-16 27-1 1v2l1 1 21-7 1-1v-2h-1zM72 102l-12 4 12 3zm120 0v7l13-3z"/>
  <path fill="#fff" d="M132 88c-10 16-15 23-24 2l-7 2c4 9 10 21 21 18 3-1 7-3 10-8 3 4 6 7 10 8 11 1 18-9 21-18l-7-2c-12 20-15 15-24-2Zm24-40c-9 0-17 7-17 16s8 16 17 16 17-7 17-16-8-16-17-16zm0 7c6 0 10 4 10 9s-4 9-10 9-10-4-10-9 4-9 10-9zm-48-7c-9 0-17 7-17 16s8 16 17 16c10 0 17-7 17-16s-8-16-17-16zm0 7c6 0 10 4 10 9s-4 9-10 9-10-4-10-9 4-9 10-9z"/>
  <path fill="#fff" d="M92 219v26-26l-18-5v25l18 5zm80 0v26-26l18-5v25l-18 5z" style="fill-opacity:.4"/>
</svg>
