<?xml version="1.0" encoding="UTF-8" standalone="no"?>
<svg xmlns="http://www.w3.org/2000/svg" viewBox="0 0 1024 256" height="160" width="640">
  <style>@media (prefers-color-scheme:dark){.themed{fill:#eee}}</style>
  <path class="themed" d="M71.7 0v49.8L8.3 68.5l26.7 35-30.2 37.4 33.1 13v75.2L132 256l94.2-26.9v-75l33.2-13.2-30.3-37.8 26.4-34.6-63.1-18.7V0l-24.5 32.1c-3.9-.4-23.7-2.6-35.9-2.6-12.1 0-32 2.2-35.9 2.6z"/>
  <path fill="#222" d="M80.9 27.2v84.5l51.1 14.6 51.2-14.6V27.2l-11.1 14.6c-13.4-1-26.7-3-40-3.1A448 448 0 0 0 92 41.8z"/>
  <path fill="#a86" d="m41.4 110-21.7 27 80.8 32 25.7-34.8zm181.4 0-85 24.1 26 34.8 80.7-32zm-122.3 58.9 25.7-34.7zm37.4-34.9 25.9 34.8zm-1.3 13.8v97.4l80.4-23v-64.5L160.6 180Zm-9.2 0L103.7 180 47 157.6v64.6l80.3 23zM71.7 59.4l-48 14.3 20.5 26.8 27.5-7.8zm120.7.1v33.3l27.2 7.7 20.6-26.9z"/>
  <path fill="#531" d="M59.6 190.8a4 4 0 0 0-2.4 0c-.7.2-1.3.7-1.8 1.3-.4.7-.6 1.5-.6 2.4v17.6a7.7 7.7 0 0 0 2.4 5 6 6 0 0 0 2.4 1.4l16.5 4.8a4 4 0 0 0 2.5 0c.7-.2 1.3-.7 1.7-1.3.4-.7.6-1.5.6-2.4V202c0-.9-.2-1.8-.6-2.7-.5-1-1-1.7-1.8-2.4a6 6 0 0 0-2.4-1.4zm29 8.3a4 4 0 0 0-2.5 0c-.7.2-1.3.7-1.7 1.3-.5.7-.7 1.5-.7 2.4v17.6c0 .9.2 1.8.7 2.7a7.3 7.3 0 0 0 4.1 3.8l16.6 4.7a4 4 0 0 0 2.4 0c.7-.2 1.3-.7 1.7-1.3.4-.7.7-1.5.7-2.4v-17.6a7.5 7.5 0 0 0-2.4-5 6 6 0 0 0-2.5-1.5zm-12.5-.4c.5.2 1 .5 1.3 1 .4.5.5 1 .5 1.5v17.5c0 .6-.1 1-.5 1.2-.4.3-.7.4-1.3.2l-16.5-4.7c-.5-.2-.9-.5-1.3-1-.3-.5-.5-1-.5-1.5v-17.5c0-.6.2-1 .5-1.2.4-.3.8-.4 1-.3zm29 8.3c.5.2.9.5 1.2 1 .4.5.5 1 .5 1.5V227c0 .6-.1 1-.5 1.2-.3.3-.7.4-1.2.2l-16.6-4.7c-.5-.2-.9-.5-1.2-1-.4-.5-.6-1-.6-1.5v-17.5c0-.6.2-1 .5-1.2.4-.3.8-.4 1-.3zm-11.4-1.4c-.5 0-.9.4-1.1.8-.7 1-1 2.3-1.6 3.6a6 6 0 0 0 .4 4.6c1.2 2 2.8 3 4.3 4.1v2.9l-1.2-.4c-.7 0-1 .3-1.1.9 0 .6.4 1.2 1 1.4l4.7 1.4c.6 0 1-.3 1-.9 0-.6-.4-1.2-1-1.4l-1.2-.4v-2.8c2-.9 3.2-.3 4.3-1.7.8-1.2 1-3 .3-4.4-.8-2-1-3.8-2-5.3-.1-.2-.3-.5-.7-.6zm-26.9-7c-3.9-.5-7 2.1-7.2 6.5 0 .4.3.7.5.9.4.3.7.3 1 0 .9-.8 1.8-.2 2.1.5.2.4.6.7 1 .7.3.1.5 0 .7-.2.4-.5 1.2-.5 1.8 0v5.7c0 .2-.3.1-.3 0 0-.8-.5-1.4-1.2-1.6-.7-.2-1.2.2-1.2.9 0 3.3 4.9 5 5 1.5v-5.7c.6-.3 1.4.1 1.8.9.5.8 1.2 1 1.7.5.5-.7 1.6-.4 2.1.6.2.4.5.6.8.7.5.1.7-.2.7-.6 0-4.3-3.1-8.9-7.2-10.7-.2-.7-1.4-1.4-2-.6zM93 211.5l7.6 2.2c.4 1.3-.1 2.4-1 2.7l-2.5.6c-.3 0-.4 0-.6-.2l-2.4-2c-.9-1-1.5-2.3-1.1-3.3zm100.4-14.8-4.2 5.7c-.5.8 0 1.5.6 1.3l2.3-.7c.1 0 .2 0 .2.2l-.1 13.1c0 1.4 3 .4 3-.9l.2-13.1c0-.2 0-.3.2-.3l2.3-.7c.7-.4 1-1.3.6-1.7l-4-3.2c-.4-.2-.9 0-1.1.3zm11.6-3.4-4.1 5.6c-.5.8 0 1.5.5 1.4l2.4-.7.1.1V213c0 1.3 3 .4 3-1l.1-13c0-.2 0-.3.2-.3l2.3-.7c.8-.4 1-1.3.6-1.7l-4-3.3c-.4-.2-.8 0-1.1.4zm-16.1 26.9c-.5.1-.8.6-.8 1v1.8c0 .5.3.7.7.6l21.4-6.3c.4-.2.7-.6.7-1v-1.8c0-.5-.3-.8-.7-.7zm-117.2-118-12.2 3.4 12.2 3.5zm120.7 0v7l12.1-3.5z"/>
  <path fill="#fff" d="M132 88.3c-9.6 15.6-15.2 22.3-24.4 1.4l-6.9 2.5c4.4 8.7 10.8 20.3 21.1 18 3.7-1 7-3.6 10.2-7.9 3.2 4.2 6.5 6.7 10.1 7.6 11.1 1.5 17.5-8.4 21.2-17.6l-6.8-2.6c-12.1 20-15 15.1-24.5-1.4ZM156 48c-9.3 0-17.2 7-17.2 16s7.9 16 17.2 16c9.3 0 17.2-7 17.2-16s-8-16-17.2-16zm0 7.1c5.7 0 10 4.1 10 9 0 4.7-4.3 8.8-10 8.8-5.8 0-10-4-10-8.9 0-4.8 4.2-8.9 10-8.9zM108.3 48C98.9 48 91 55 91 64s7.9 16 17.2 16c9.3 0 17.2-7 17.2-16s-8-16-17.2-16zm0 7.1c5.7 0 10 4.1 10 9 0 4.7-4.3 8.8-10 8.8-5.8 0-10-4-10-8.9 0-4.8 4.2-8.9 10-8.9z"/>
  <path fill="#fff" d="M91.6 219v25.5V219l-17.9-5.1v25.5l18 5zm80.8 0v25.5V219l18-5.1v25.5l-18 5z" style="fill-opacity:.4"/>
  <path class="themed" d="M999.9 52.6v104.2c0 2.3.6 4 2 5.4a8 8 0 0 0 5.8 2h4.3v24.7h-13.2a24 24 0 0 1-18.1-6.7 26.4 26.4 0 0 1-6.5-19V52.5ZM925.5 189v-61.7c0-4.5-1.5-8-4.5-10.4-3-2.4-7.2-3.6-12.7-3.6A33.9 33.9 0 0 0 888 120l-16-15.6A38 38 0 0 1 887.5 94a57.6 57.6 0 0 1 21.2-3.7c12.8 0 22.7 3.2 29.7 9.5s10.5 15.2 10.5 26.7V189zm-27 1.4c-10.4 0-18.2-2.4-23.4-7.4-5.2-5-7.8-12.5-7.8-22.7 0-9.7 2.9-16.9 8.6-21.6 5.8-4.8 14.5-7.2 26.1-7.2h24.4l1.3 19.5H902c-3.9 0-6.8.8-8.7 2.4-2 1.5-3 3.8-3 7 0 3.1 1.3 5.5 3.7 7 2.5 1.6 6.2 2.3 11 2.3 6.9 0 12-.8 15.4-2.3 3.3-1.6 5-4 5-7.4l2 14.2c-.4 3.7-2 6.8-5 9.2-3 2.4-6.5 4.1-10.8 5.3a51.4 51.4 0 0 1-13.3 1.7zM764.6 189V91.6h25.7V189zm56.3 0v-59c0-4.8-1.4-8.5-4.1-11-2.7-2.6-6.6-4-11.6-4a15 15 0 0 0-11 4 15.4 15.4 0 0 0-3.9 11.2l-2-21.5A38 38 0 0 1 798.8 95c4-3.2 9.3-4.8 15.7-4.8a29 29 0 0 1 23.8 10.4 45 45 0 0 1 8.5 29.3v59zm-121.7 1.4a41.8 41.8 0 0 1-31-11 42.8 42.8 0 0 1-11-31.4v-15.8c0-13.3 3.7-23.6 11-31a42 42 0 0 1 31-10.9 42 42 0 0 1 31 11c7.4 7.3 11 17.6 11 31v16c0 13.4-3.6 23.8-11 31.2a42 42 0 0 1-31 11zm0-24.7a16 16 0 0 0 12-4.5 18 18 0 0 0 4.3-12.9v-16c0-5.5-1.4-9.8-4.3-12.8a16 16 0 0 0-12-4.5c-5.2 0-9.2 1.5-12 4.5-2.9 3-4.3 7.3-4.3 12.7v16.1c0 5.5 1.4 9.8 4.2 12.9a16 16 0 0 0 12 4.5zm-88.8-87.3V52.6h25.7v25.7zm0 110.6V91.6h25.7V189zm-34 .5c-8.7 0-15-2.2-18.8-6.7-4-4.4-5.9-10.8-5.9-19V63.2h25.7v94c0 2.2.5 4 1.4 5.4a5 5 0 0 0 4.2 2h6.3v24.7zm-34.7-75.9v-22h47.6v22zm-97 115v-137h25.8v136.9Zm48.4-38.2a25 25 0 0 1-14.8-4.3 26 26 0 0 1-9.2-12.4l1.4-22.2c0 3.2.5 6 1.6 8.2 1.2 2.2 2.8 4 5 5.1 2.1 1.2 4.7 1.8 7.8 1.8 4.8 0 8.5-1.6 11.2-4.8 2.6-3.2 4-7.7 4-13.5v-15.4a21 21 0 0 0-4-13.8c-2.7-3.3-6.4-5-11.2-5-3 0-5.7.6-7.9 1.9a13 13 0 0 0-4.9 5.2 19.2 19.2 0 0 0-1.6 8.5l-2-21.6A32 32 0 0 1 478.8 95c4.3-3.1 9-4.7 14.3-4.7 10.4 0 18.5 3.7 24.1 11.2a50.3 50.3 0 0 1 8.6 31.3v15.5a50 50 0 0 1-8.6 31.2 28.9 28.9 0 0 1-24.1 11zm-123.4 0a53 53 0 0 1-26.3-6.2 44 44 0 0 1-17.3-17.6 54.4 54.4 0 0 1-6.2-26.4v-38.6c0-10.2 2-19 6.2-26.5a42.9 42.9 0 0 1 17.3-17.5 53 53 0 0 1 26.3-6.3c10 0 18.7 2 26.1 6.3a44 44 0 0 1 17.5 17.5 54 54 0 0 1 6.2 26.4v38.7c0 10-2.1 18.8-6.2 26.4a43.8 43.8 0 0 1-17.5 17.6 53 53 0 0 1-26.1 6.2zm0-25.7c7 0 12.6-2.2 16.8-6.5a23.8 23.8 0 0 0 6.3-17.4v-40c0-7.2-2-13-6.3-17.3a22.1 22.1 0 0 0-16.8-6.5c-7 0-12.6 2.2-16.9 6.5a24 24 0 0 0-6.3 17.4v40a24 24 0 0 0 6.3 17.3c4.3 4.3 9.9 6.5 16.9 6.5z"/>
</svg>
